PathFileType	4	(X/Y/Z)	C:\Users\Basilio\Documents\Thesis Gigler\squatting_fais\c3dfiles\077\SLS_back_pre4\markers_experimental.trc
DataRate	CameraRate	NumFrames	NumMarkers	Units	OrigDataRate	OrigDataStartFrame	OrigNumFrames
200.000000	200.000000	4	60	mm	200.000000	1226	1402
Frame#	Time	FHD			LBHD			RBHD			C7			T10			CLAV			LSHO			LUUPA			LMUPA			LDUPA			LLEP			LMEP			LRAD			LUL			LRFIN			RSHO			RUPA1			RMUPA			RDUPA			RLEP			RMEP			RRAD			RUL			RUFIN			LASI			RASI			USACR			LSACR			RSACR			LTHI1			LTHI2			LTHI3			LTHI4			LLFC			LMFC			LTIB1			LTIB2			LTIB3			LTIB4			LLMAL			LHEE			LMT1			LMT2			LMT5			RTHI			RTHI2			RTHI3			RTHI4			RLFC			RMFC			RTIB1			RTIB2			RTIB3			RTIB4			RLMAL			RMMAL			RHEE			RMT1			RMT2			RMT5			
		X1	Y1	Z1	X2	Y2	Z2	X3	Y3	Z3	X4	Y4	Z4	X5	Y5	Z5	X6	Y6	Z6	X7	Y7	Z7	X8	Y8	Z8	X9	Y9	Z9	X10	Y10	Z10	X11	Y11	Z11	X12	Y12	Z12	X13	Y13	Z13	X14	Y14	Z14	X15	Y15	Z15	X16	Y16	Z16	X17	Y17	Z17	X18	Y18	Z18	X19	Y19	Z19	X20	Y20	Z20	X21	Y21	Z21	X22	Y22	Z22	X23	Y23	Z23	X24	Y24	Z24	X25	Y25	Z25	X26	Y26	Z26	X27	Y27	Z27	X28	Y28	Z28	X29	Y29	Z29	X30	Y30	Z30	X31	Y31	Z31	X32	Y32	Z32	X33	Y33	Z33	X34	Y34	Z34	X35	Y35	Z35	X36	Y36	Z36	X37	Y37	Z37	X38	Y38	Z38	X39	Y39	Z39	X40	Y40	Z40	X41	Y41	Z41	X42	Y42	Z42	X43	Y43	Z43	X44	Y44	Z44	X45	Y45	Z45	X46	Y46	Z46	X47	Y47	Z47	X48	Y48	Z48	X49	Y49	Z49	X50	Y50	Z50	X51	Y51	Z51	X52	Y52	Z52	X53	Y53	Z53	X54	Y54	Z54	X55	Y55	Z55	X56	Y56	Z56	X57	Y57	Z57	X58	Y58	Z58	X59	Y59	Z59	X60	Y60	Z60	

1227	6.13	-113.5096282958985	1800.89404296875	-874.977722167969	-288.3103332519532	1772.340087890625	-946.086853027344	-294.9879150390626	1768.302978515625	-800.926940917969	-392.9375610351564	1631.303833007813	-872.9553833007815	-420.3468322753907	1284.918090820313	-856.5137939453127	-238.2349090576172	1562.714721679688	-885.7416992187502	-313.5429687500001	1572.661865234375	-1074.7646484375	-328.7813415527344	1375.319702148438	-1195.988891601563	-281.1221618652344	1364.763061523438	-1203.099975585938	-311.4605102539063	1316.215209960938	-1225.35400390625	-278.5657043457032	1259.870361328125	-1249.776733398438	-314.6747131347657	1215.136108398438	-1194.540649414063	-30.48036003112794	1097.953002929688	-1135.478515625	-54.84432220458986	1060.592041015625	-1204.059448242188	42.91898727416993	1035.791015625	-1149.136474609375	-260.5437927246094	1577.493408203125	-690.2406005859376	-259.3847045898438	1394.882690429688	-548.7291259765626	-210.6516265869141	1385.773193359375	-550.5554809570314	-232.4802856445313	1336.874267578125	-520.2009887695314	-193.3522186279297	1280.566650390625	-502.0511169433595	-235.1231994628907	1229.384765625	-549.0739135742189	35.09982299804688	1123.135375976563	-619.6840209960939	35.29663085937501	1090.618408203125	-545.5463867187501	117.4011306762696	1068.510131835938	-619.8174438476564	-253.1414642333985	1064.97119140625	-1000.18798828125	-223.2878112792969	1098.9130859375	-718.7974243164064	-434.080047607422	1179.302490234375	-850.2893066406252	-444.7393493652345	1148.09326171875	-876.369567871094	-441.5303955078126	1148.635620117188	-820.9447021484377	-338.7158508300782	865.2718505859377	-1060.98388671875	-316.9090576171876	784.3033447265627	-1068.595458984375	-268.4354248046876	781.5036621093752	-1065.255615234375	-349.8268432617188	734.1203613281251	-1055.34716796875	-327.6966247558594	586.2257080078126	-1043.662719726563	-314.3395385742188	549.0144042968751	-915.7280883789065	-287.4182128906251	363.5146484375001	-1009.604736328125	-319.4144287109376	327.9432983398438	-1084.519165039063	-286.2332458496094	322.4881896972657	-1051.99609375	-286.7496337890626	240.5541381835938	-1032.759155273438	-343.5192871093751	123.0495376586914	-1086.478881835938	-396.6725158691407	86.36250305175783	-1041.035888671875	-187.4465484619141	54.16744995117189	-1022.0830078125	-180.9603576660157	59.40118408203126	-1064.669189453125	-312.1188659667969	126.8278961181641	-1004.152587890625	-362.5178222656251	773.8308715820315	-682.6488037109376	-338.5229187011719	713.6173706054689	-683.8137817382814	-304.8113708496094	708.6074829101564	-685.4860839843751	-377.7680053710938	644.0746459960939	-702.4646606445314	-386.4322204589845	572.5194702148439	-708.9738769531251	-350.7130432128907	561.0241699218751	-836.7371215820315	-334.8096008300782	436.6604614257814	-729.7144775390626	-396.7661743164064	353.5047302246094	-703.7490234375001	-352.1793212890626	351.6552124023438	-721.0576782226564	-343.8485107421876	308.9699401855469	-762.2771606445314	-411.6889953613282	128.0822906494141	-736.2833251953126	-373.9489746093751	138.600814819336	-821.1094970703127	-464.5433349609376	105.4012603759766	-799.1138916015627	-244.8268280029297	62.7853126525879	-768.540954589844	-253.9302520751954	61.33766555786134	-731.8990478515626	-277.6547241210938	45.61438369750977	-685.6206665039064	
1228	6.135	-111.921989440918	1799.877197265625	-874.6441040039065	-287.0008850097657	1772.104248046875	-945.9802246093752	-294.0794372558594	1767.575317382813	-800.9443969726565	-392.1811523437501	1631.46630859375	-872.8900146484377	-420.3466186523439	1285.085571289063	-856.269958496094	-237.5932922363282	1562.135131835938	-885.5882568359377	-312.9022521972657	1571.982299804688	-1074.612670898438	-332.2899169921876	1373.745849609375	-1194.460327148438	-284.6663818359376	1361.900146484375	-1201.705810546875	-316.2778015136719	1314.133544921875	-1223.34814453125	-284.7370605468751	1256.98779296875	-1247.532348632813	-321.6821594238282	1213.318115234375	-1191.544921875	-39.42436599731446	1090.346923828125	-1135.490478515625	-65.8369598388672	1052.789794921875	-1203.603393554688	32.75224685668946	1026.146606445313	-1149.99462890625	-260.0687561035157	1577.025146484375	-689.6612548828126	-262.8415222167969	1393.119506835938	-549.2819824218751	-214.501693725586	1382.667114257813	-550.4588012695314	-237.4145507812501	1334.223876953125	-520.9055175781251	-199.8522033691407	1277.018798828125	-502.6622314453126	-242.4170989990235	1227.037841796875	-550.4672241210939	25.64768791198731	1113.186767578125	-617.3895263671876	24.00601959228516	1080.976806640625	-543.3778686523439	107.0863571166992	1056.972778320313	-615.4675292968751	-255.0646514892579	1065.4921875	-1000.776489257813	-223.4499664306641	1098.735595703125	-718.5119628906251	-434.245330810547	1179.144287109375	-849.9572753906252	-444.8905029296876	1147.964477539063	-876.026306152344	-441.7301330566407	1148.592651367188	-820.5531005859377	-338.9825744628907	865.1357421875002	-1060.718383789063	-317.3071289062501	784.2654418945315	-1068.284423828125	-269.0623474121094	781.1929931640627	-1064.7158203125	-349.9288330078126	733.9354248046876	-1055.067504882813	-327.9917907714844	586.0950927734376	-1043.395874023438	-314.7388305664063	548.9085083007814	-915.5770263671877	-287.6435241699219	363.5287475585938	-1009.5732421875	-319.7057189941407	327.9103393554688	-1084.404052734375	-286.5226745605469	322.5806579589844	-1052.009155273438	-286.9125366210938	240.5737609863282	-1032.752807617188	-343.8224182128907	123.1284484863282	-1086.528442382813	-396.6852416992189	86.34226226806642	-1041.049560546875	-187.4786376953125	54.21884918212892	-1022.120666503906	-180.9903411865235	59.55698394775392	-1064.699951171875	-312.1169433593751	126.8638076782227	-1004.165832519531	-362.7946777343751	773.681579589844	-682.4110107421876	-338.7914428710938	713.5716552734376	-683.9362792968751	-305.0508728027344	708.6148071289064	-685.2850341796876	-378.0288391113282	644.0890502929689	-702.2850341796876	-386.732879638672	572.5217285156251	-708.8375854492189	-351.0390625000001	560.9708862304689	-836.5083007812502	-335.1783447265626	436.6298828125001	-729.5892333984376	-397.0032043457032	353.4631652832032	-703.5499267578126	-352.4974060058594	351.7677917480469	-720.9343872070314	-344.2788085937501	308.8715515136719	-762.3644409179689	-411.7351379394532	127.9505691528321	-736.2427978515626	-375.0886840820313	138.9174499511719	-821.3608398437502	-464.5894165039064	105.3178024291992	-799.1077270507815	-244.8153228759766	62.83693695068361	-768.514343261719	-253.8102264404297	61.42494583129884	-731.7776489257814	-277.6448669433594	45.5867042541504	-685.6460571289064	
1229	6.140000000000001	-111.0625457763672	1799.60400390625	-874.7381591796877	-285.6726074218751	1772.05810546875	-945.693542480469	-292.8095703125001	1767.384643554688	-800.7851562500002	-391.3511352539064	1631.643310546875	-872.7695922851565	-420.3951721191407	1285.211669921875	-855.9654541015627	-237.0367126464844	1561.808959960938	-885.5112915039065	-312.3874206542969	1571.640869140625	-1074.688232421875	-335.6726074218751	1372.305786132813	-1192.895385742188	-287.9822387695313	1359.5966796875	-1200.284912109375	-320.9021606445313	1312.142578125	-1221.281005859375	-291.1199645996094	1254.066040039063	-1245.126098632813	-328.0861511230469	1211.845458984375	-1188.40576171875	-48.24177551269533	1082.545043945313	-1135.458862304688	-76.00843048095705	1045.099853515625	-1202.914306640625	22.22504615783692	1016.54248046875	-1150.449462890625	-259.7234497070313	1576.493286132813	-689.3079833984376	-266.3518371582032	1391.065551757813	-549.8110351562501	-218.2382202148438	1379.555786132813	-550.7534790039064	-242.4255371093751	1331.706298828125	-521.6297607421876	-206.5016632080079	1273.4580078125	-503.4819946289064	-249.6352691650391	1224.854125976563	-552.1826171875001	15.89777565002442	1103.877563476563	-615.0451660156251	12.75370311737061	1071.79150390625	-541.1114501953126	96.11970520019534	1045.872436523438	-612.1238403320314	-255.338851928711	1065.46533203125	-1000.485656738281	-223.3536224365235	1099.001342773438	-718.6207275390626	-434.4165039062501	1179.0888671875	-849.5584106445315	-445.0254516601564	1147.889892578125	-875.7719726562502	-441.7807006835939	1148.64013671875	-820.1751708984377	-339.3296203613282	865.0994873046877	-1060.434814453125	-317.6258544921876	784.2124023437502	-1068.01025390625	-268.7016601562501	780.937194824219	-1064.236328125	-350.3863830566407	733.9412231445314	-1054.892822265625	-328.3374328613282	585.9981079101564	-1043.17431640625	-315.0976562500001	548.7672119140626	-915.4006958007815	-287.8758239746094	363.6120300292969	-1009.503662109375	-320.0965576171876	327.8140869140626	-1084.3173828125	-286.7933654785157	322.5315856933594	-1052.01171875	-287.0438232421876	240.5904083251954	-1032.765625	-343.7183837890626	123.0698623657227	-1086.564697265625	-396.727020263672	86.31626892089845	-1041.060668945313	-187.4923248291016	54.2147674560547	-1022.148071289063	-181.0229187011719	59.46251296997072	-1064.704956054688	-312.1169738769532	126.8240737915039	-1004.158447265625	-363.1061096191407	773.5507812500002	-682.2484130859376	-339.1463928222657	713.4163208007814	-683.7136840820314	-305.4323730468751	708.4976196289064	-685.0865478515626	-378.2767639160157	644.1375732421876	-702.1054077148439	-387.1044921875001	572.4497680664064	-708.6762084960939	-351.4014892578126	561.0072631835939	-836.3659667968752	-335.4902343750001	436.4229125976564	-729.4055786132814	-397.2439880371095	353.3833312988282	-703.3710937500001	-352.8362121582032	351.4536743164063	-720.7841796875001	-344.3274230957032	308.8752136230469	-762.1821899414064	-411.8123474121095	127.9201583862305	-736.2056274414064	-373.8396301269532	138.5720520019532	-821.018981933594	-464.634979248047	105.2825546264649	-799.0730590820315	-244.8215789794922	62.84252548217775	-768.5061645507815	-253.7993621826172	61.4887161254883	-731.7397460937501	-277.6410827636719	45.51934051513673	-685.6052856445314	
1230	6.145	-110.4313430786133	1799.474243164063	-875.0516357421877	-284.5401000976563	1771.554931640625	-945.469421386719	-291.6303405761719	1767.203002929688	-800.7698974609377	-390.4541625976564	1631.834716796875	-872.604919433594	-420.4549865722657	1285.257690429688	-855.7363281250002	-236.4114837646485	1561.497680664063	-885.400817871094	-311.8838195800782	1571.33935546875	-1074.694091796875	-338.7813110351563	1370.899536132813	-1191.326049804688	-292.2029724121094	1357.189697265625	-1199.038696289063	-325.0332336425782	1310.083618164063	-1219.1083984375	-297.2058715820313	1251.278686523438	-1242.691528320313	-334.5939941406251	1210.2470703125	-1185.263549804688	-57.07844161987306	1074.816772460938	-1135.229736328125	-87.07515716552736	1037.862915039063	-1202.296752929688	11.54893684387207	1007.556518554688	-1151.420776367188	-259.1836547851563	1576.238159179688	-688.7663574218751	-269.8181762695313	1389.416259765625	-550.4060668945314	-221.904281616211	1376.823486328125	-551.0055541992189	-247.4154663085938	1329.275756835938	-522.3964233398439	-213.1341857910157	1270.205444335938	-504.3509826660157	-256.7635803222657	1222.796508789063	-553.9846191406251	6.257236957550051	1094.544555664063	-612.7945556640626	1.425541043281555	1063.002807617188	-538.7434082031251	84.3866424560547	1034.417114257813	-609.4243774414064	-255.5817108154297	1065.302124023438	-1000.303771972656	-223.5770568847657	1098.771118164063	-718.2351074218751	-434.5501098632814	1178.945068359375	-849.2490844726565	-445.1749572753907	1147.82470703125	-875.4710693359377	-441.886688232422	1148.614501953125	-819.837097167969	-339.7234191894532	864.8923339843752	-1060.143432617188	-317.9571533203126	784.1258544921877	-1067.816772460938	-269.1055603027344	780.7940063476565	-1064.006225585938	-350.8344421386719	733.9379882812501	-1054.703125	-328.7205200195313	585.8760986328126	-1042.925903320313	-315.5083312988282	548.7374267578126	-915.2547607421877	-287.4350585937501	363.4470825195313	-1009.103698730469	-320.4063720703126	327.8838195800782	-1084.20556640625	-287.0510864257813	322.3151245117188	-1052.01318359375	-287.2142333984376	240.602279663086	-1032.670043945313	-343.8108825683594	122.9551391601563	-1086.5859375	-396.6887512207032	86.20484924316408	-1041.080078125	-187.5171508789063	54.25198364257814	-1022.130310058594	-181.0287170410157	59.47080230712892	-1064.70556640625	-312.1630249023438	126.7630920410157	-1004.166870117188	-363.3416137695313	773.593933105469	-682.0739746093751	-339.4352111816407	713.4069213867189	-683.3287353515626	-305.7127685546876	708.4223632812501	-684.8366088867189	-378.5905761718751	644.1151123046876	-701.9285278320314	-387.5174255371095	572.3310546875001	-708.4674682617189	-351.7379760742188	560.9677734375001	-836.2466430664065	-335.5351257324219	436.2905578613282	-729.1290893554689	-397.4748840332032	353.2815551757813	-703.2120971679689	-353.0309753417969	351.4751586914063	-720.6552734375001	-344.6799316406251	309.0813293457032	-762.0939941406251	-411.7933959960939	127.8198623657227	-736.1431884765626	-374.3137817382813	138.7160339355469	-821.0434570312502	-464.641815185547	105.2227783203125	-799.0477294921877	-244.8499908447266	62.88361740112306	-768.4554443359377	-253.8046569824219	61.50330352783205	-731.7294921875001	-277.5758972167969	45.61488723754884	-685.5751342773439	
